# xmcd
#
# Track frame offsets: 
#        150
#        8353
#        25307
#        42593
#        57428
#        78484
#        102750
#        111754
#        121850
#        138957
#        158421
#        170276
#        189330
#        209542
#        225492
#
# Disc length: 3132 seconds
#
# Revision: 0
# Processed by: cddbd v1.5.2PL0 Copyright (c) Steve Scherf et al.
# Submitted via: ExactAudioCopy v1.0b1
#
DISCID=b30c3a0f
DTITLE=XINKOA - Y Lo Ke Me Kea
DYEAR=2004
DGENRE=Hip-Hop
TTITLE0=Intro-Y Lo Ke Me Kea
TTITLE1=Keyo con Dj Paharo-Hacer el rap por amor
TTITLE2=Wol y Zilez-Insisto
TTITLE3=Dekoh y Smoky la moka-El tiempo acecha
TTITLE4=Demasiado De-Línea amistad
TTITLE5=Xinkoa con S-Koria-Se recoge lo que se siembra
TTITLE6=Xinkoa-4x4
TTITLE7=Bako-Cerrad las ventanas
TTITLE8=Jesuly-Manos susias
TTITLE9=Zenit-Al final del túnel
TTITLE10=Karisma-Rap por encargo
TTITLE11=Trafik(Púgiles)-La ventana del 4º Piso
TTITLE12=Dakah-Abuso
TTITLE13=El Tralla-Números 1
TTITLE14=Dj Paharo-Outro
EXTD=
EXTT0=
EXTT1=
EXTT2=
EXTT3=
EXTT4=
EXTT5=
EXTT6=
EXTT7=
EXTT8=
EXTT9=
EXTT10=
EXTT11=
EXTT12=
EXTT13=
EXTT14=
PLAYORDER=
